<svg xmlns="http://www.w3.org/2000/svg" viewBox="0 0 42 42">
  <defs>
    <linearGradient id="gearGrad" x1="0%" y1="0%" x2="100%" y2="100%">
      <stop offset="0%" style="stop-color:#f5a623"/>
      <stop offset="100%" style="stop-color:#e8912d"/>
    </linearGradient>
  </defs>
  <path fill="url(#gearGrad)" fill-rule="evenodd" clip-rule="evenodd" d="M16.0066 8.23771L9.27461 3.57573C7.02813 5.09044 5.09044 7.02813 3.57573 9.27461L8.23771 16.0066L0.299003 17.4488C0.102398 18.6032 0 19.7896 0 21C0 22.576 0.173599 24.1114 0.502719 25.5882L8.23771 26.9934L3.92272 33.2243C5.55465 35.5001 7.6302 37.4361 10.0229 38.9061L16.0066 34.7623L17.2612 41.6682C18.4745 41.8862 19.724 42 21 42C22.6435 42 24.2429 41.8112 25.7777 41.4541L26.9934 34.7623L32.4989 38.5749C34.9176 36.9892 36.9892 34.9176 38.5749 32.4989L34.7623 26.9934L41.4541 25.7777C41.8112 24.2429 42 22.6435 42 21C42 19.724 41.8862 18.4745 41.6682 17.2612L34.7623 16.0066L38.9061 10.0229C37.4361 7.6302 35.5001 5.55465 33.2243 3.92272L26.9934 8.23771L25.5882 0.502719C24.1114 0.173599 22.576 0 21 0C19.7896 0 18.6032 0.102398 17.4488 0.299003L16.0066 8.23771ZM21 26C23.7614 26 26 23.7614 26 21C26 18.2386 23.7614 16 21 16C18.2386 16 16 18.2386 16 21C16 23.7614 18.2386 26 21 26Z"/>
  <!-- Center hole -->
  <circle cx="21" cy="21" r="5" fill="#0a0c0f"/>
</svg>
